<?xml version="1.0" standalone="no"?>
<!DOCTYPE svg PUBLIC "-//W3C//DTD SVG 20010904//EN"
 "http://www.w3.org/TR/2001/REC-SVG-20010904/DTD/svg10.dtd">
<svg version="1.0" xmlns="http://www.w3.org/2000/svg"
 width="300.000000pt" height="300.000000pt" viewBox="0 0 300.000000 300.000000"
 preserveAspectRatio="xMidYMid meet">
<metadata>
Created by potrace 1.10, written by Peter Selinger 2001-2011
</metadata>
<g transform="translate(0.000000,300.000000) scale(0.100000,-0.100000)"
fill="#000000" stroke="none">
<path d="M663 1869 c-38 -11 -83 -62 -83 -95 0 -23 -3 -24 -60 -24 -44 0 -62
-4 -66 -15 -3 -8 -21 -117 -39 -242 -22 -156 -29 -232 -23 -240 15 -19 601
-19 616 0 8 9 1 78 -23 244 -18 127 -36 236 -40 242 -3 6 -32 11 -63 11 -51 0
-58 2 -59 21 -5 67 -88 118 -160 98z m73 -67 c10 -6 34 -45 34 -54 0 -6 -132
0 -138 6 -3 3 5 17 18 31 23 24 63 33 86 17z m-80 -71 c48 -13 116 -2 122 21
5 19 5 19 26 -1 12 -11 37 -22 56 -25 73 -9 70 -5 91 -151 33 -238 36 -271 28
-287 -9 -16 -34 -17 -278 -18 -211 0 -271 3 -280 13 -8 10 -4 60 14 188 30
210 40 249 63 250 51 2 79 10 92 28 13 17 17 18 26 5 7 -8 25 -18 40 -23z"/>
<path d="M720 1670 c-40 -4 -45 -8 -48 -32 -4 -32 -22 -38 -22 -7 0 11 -4 17
-10 14 -5 -3 -10 1 -10 9 0 19 -39 22 -45 4 -10 -27 -11 -85 -4 -106 8 -22 14
-23 116 -21 60 0 114 6 121 11 15 13 15 88 -1 109 -16 20 -42 26 -97 19z
m-100 -55 c0 -38 3 -45 19 -45 11 0 26 -2 34 -5 11 -5 13 4 11 45 -2 38 1 50
12 50 10 0 14 -15 14 -59 0 -59 0 -60 -27 -56 -16 2 -41 4 -58 4 -30 1 -30 2
-31 56 0 40 3 55 13 55 9 0 13 -14 13 -45z m150 35 c0 -5 -5 -10 -11 -10 -5 0
-7 -5 -3 -12 5 -7 11 -5 21 7 13 18 13 18 27 -1 8 -10 10 -20 5 -22 -13 -5
-11 -39 2 -48 7 -4 7 -10 1 -16 -16 -16 -32 0 -32 33 0 19 -5 29 -15 29 -10 0
-15 -11 -15 -35 0 -19 -4 -35 -9 -35 -12 0 -20 81 -9 103 9 18 38 24 38 7z"/>
<path d="M594 1423 c-16 -17 -18 -56 -4 -83 8 -14 21 -18 60 -17 33 0 55 -5
68 -16 33 -30 58 -21 81 26 24 49 27 85 9 92 -7 3 -55 6 -106 8 -71 3 -97 1
-108 -10z m121 -45 c0 -47 -19 -55 -23 -10 -4 39 -22 33 -22 -9 0 -16 -4 -29
-10 -29 -5 0 -10 16 -10 35 0 32 -19 52 -21 23 -1 -7 -2 -22 -3 -32 0 -11 -7
-21 -13 -23 -9 -3 -13 9 -13 40 l0 44 58 -1 57 -1 0 -37z m43 15 l10 -28 7 28
c4 15 14 27 22 27 10 0 13 -5 8 -17 -4 -10 -12 -31 -17 -48 -16 -44 -58 -74
-58 -40 0 8 5 15 11 15 11 0 10 6 -7 68 -9 32 12 28 24 -5z"/>
<path d="M1430 1556 l0 -201 36 1 36 1 2 94 c2 114 13 139 61 139 18 0 37 -6
42 -12 4 -7 9 -60 10 -117 l1 -104 36 -1 36 -1 0 112 c0 62 -5 123 -11 136
-22 48 -97 62 -142 27 -14 -11 -28 -20 -32 -20 -4 0 -5 32 -3 72 l3 72 -38 1
-37 2 0 -201z"/>
<path d="M1143 1631 c-39 -25 -52 -64 -32 -100 17 -30 45 -45 119 -64 30 -8
55 -18 57 -23 5 -17 -13 -34 -44 -40 -26 -5 -37 -1 -57 19 -21 21 -32 25 -61
20 -42 -7 -43 -12 -10 -47 77 -84 245 -49 245 50 0 46 -29 70 -113 91 -90 23
-105 48 -35 60 27 4 40 1 54 -15 14 -14 28 -18 52 -15 38 6 40 13 8 49 -20 24
-32 28 -87 31 -51 3 -70 0 -96 -16z"/>
<path d="M1831 1632 c-55 -27 -76 -64 -76 -132 0 -68 21 -105 76 -132 75 -39
165 -11 201 62 67 132 -70 269 -201 202z m118 -68 c43 -55 12 -154 -49 -154
-36 0 -70 44 -70 90 0 78 76 118 119 64z"/>
<path d="M2110 1450 l0 -200 30 0 c17 0 33 1 37 3 3 1 5 33 4 71 l-2 68 29
-21 c107 -76 225 66 168 203 -31 74 -121 102 -171 51 l-25 -24 0 24 c0 22 -5
25 -35 25 l-35 0 0 -200z m184 118 c9 -12 16 -43 16 -68 0 -57 -22 -90 -59
-90 -41 0 -64 32 -65 89 -1 35 5 55 18 70 25 28 70 27 90 -1z"/>
</g>
</svg>
